<?xml version="1.0" encoding="UTF-8"?>
<!DOCTYPE svg PUBLIC "-//W3C//DTD SVG 1.0//EN" "http://www.w3.org/TR/2001/REC-SVG-20010904/DTD/svg10.dtd">
<!-- Creator: CorelDRAW X8 -->
<svg xmlns="http://www.w3.org/2000/svg" xml:space="preserve" width="77.5404mm" height="65.5016mm" version="1.0" style="shape-rendering:geometricPrecision; text-rendering:geometricPrecision; image-rendering:optimizeQuality; fill-rule:evenodd; clip-rule:evenodd"
viewBox="0 0 3390 2864"
 xmlns:xlink="http://www.w3.org/1999/xlink">
 <defs>
  <style type="text/css">
   <![CDATA[
    .fil0 {fill:#FEFEFE}
   ]]>
  </style>
 </defs>
 <g id="Слой_x0020_1">
  <metadata id="CorelCorpID_0Corel-Layer"/>
  <path class="fil0" d="M676 1876c82,0 158,27 219,73l-531 488c-35,-56 -55,-123 -55,-194 0,-202 164,-367 367,-367zm2626 504l0 1 86 0 0 39 -140 0 0 -36 61 -59c12,-12 21,-21 26,-29 5,-8 7,-17 7,-26 0,-19 -10,-29 -31,-29 -19,0 -36,7 -53,22l0 -42c19,-12 39,-18 63,-18 22,0 39,6 51,17 12,11 18,26 18,44 0,25 -15,51 -45,77l-43 39zm-1068 -266c0,67 23,122 67,167 44,44 100,66 167,66 66,0 119,-16 158,-50 37,-31 62,-68 73,-109l-74 0c-8,17 -22,34 -41,50 -33,28 -72,43 -116,43 -45,0 -84,-17 -117,-50 -33,-34 -50,-73 -50,-117 0,-44 17,-83 50,-117 33,-33 72,-50 117,-50 44,0 83,14 116,42 18,15 31,30 40,47l74 0c-12,-40 -36,-75 -72,-105 -39,-34 -92,-50 -158,-50 -67,0 -123,22 -167,66 -44,45 -67,100 -67,167zm1001 0c0,65 -23,119 -69,165 -45,46 -100,68 -165,68 -64,0 -119,-22 -165,-68 -45,-46 -68,-100 -68,-165 0,-64 23,-119 68,-165 46,-46 101,-68 165,-68 65,0 120,22 165,68 46,46 69,101 69,165zm-116 -118c-33,-32 -72,-49 -118,-49 -46,0 -85,17 -118,49 -32,33 -49,72 -49,118 0,46 17,85 49,118 33,32 72,49 118,49 46,0 85,-17 118,-49 33,-33 49,-72 49,-118 0,-46 -16,-85 -49,-118zm-218 -1760l-2857 2628 -44 -48 2857 -2628 44 48zm-1282 417c185,0 353,73 476,192l-118 109c-94,-87 -220,-140 -358,-140 -290,0 -525,235 -525,525 0,122 42,235 112,324l-119 109c-96,-118 -154,-269 -154,-433 0,-174 65,-334 173,-455l-222 -222c-61,45 -137,72 -219,72 -203,0 -368,-164 -368,-367 0,-203 165,-367 368,-367 202,0 367,164 367,367 0,74 -22,142 -59,200l228 229c115,-90 261,-143 418,-143zm561 291c79,111 125,248 125,395 0,379 -307,686 -686,686 -168,0 -321,-60 -441,-160l120 -110c89,69 200,110 321,110 291,0 526,-236 526,-526 0,-105 -31,-203 -85,-286l120 -109zm-1196 1099c37,58 59,127 59,200 0,203 -164,367 -367,367 -85,0 -163,-28 -225,-76l533 -491z"/>
 </g>
</svg>
