<?xml version="1.0" encoding="UTF-8"?>
<!DOCTYPE svg PUBLIC "-//W3C//DTD SVG 1.0//EN" "http://www.w3.org/TR/2001/REC-SVG-20010904/DTD/svg10.dtd">
<!-- Creator: CorelDRAW X8 -->
<svg xmlns="http://www.w3.org/2000/svg" xml:space="preserve" width="50.2207mm" height="50.2207mm" version="1.0" style="shape-rendering:geometricPrecision; text-rendering:geometricPrecision; image-rendering:optimizeQuality; fill-rule:evenodd; clip-rule:evenodd"
viewBox="0 0 3740 3740"
 xmlns:xlink="http://www.w3.org/1999/xlink">
 <defs>
  <style type="text/css">
   <![CDATA[
    .fil0 {fill:#FEFEFE;fill-rule:nonzero}
   ]]>
  </style>
 </defs>
 <g id="Слой_x0020_1">
  <metadata id="CorelCorpID_0Corel-Layer"/>
  <path class="fil0" d="M1870 0c516,0 984,209 1322,548 338,338 548,805 548,1322 0,516 -210,984 -548,1322 -338,338 -806,548 -1322,548 -517,0 -984,-210 -1322,-548 -339,-338 -548,-806 -548,-1322 0,-517 209,-984 548,-1322 338,-339 805,-548 1322,-548zm-318 1481c-47,-358 -18,-740 359,-907 -334,632 1258,1098 828,2061l-1187 -1154zm1073 1352c-160,222 -379,291 -678,244 207,-155 341,-358 354,-559l324 315zm-529 -514c-63,163 -132,252 -395,369 -193,86 -104,300 5,356 -835,32 -990,-839 -401,-1230 -71,129 -130,313 34,356 91,24 299,-22 276,-320l481 469zm-1488 -1674l2521 2452c309,-317 500,-750 500,-1227 0,-486 -197,-926 -515,-1244 -319,-318 -759,-515 -1244,-515 -486,0 -926,197 -1244,515 -6,6 -12,12 -18,19zm2442 2529l-2517 -2448c-263,308 -422,707 -422,1144 0,485 197,925 515,1244 318,318 758,515 1244,515 454,0 868,-172 1180,-455z"/>
 </g>
</svg>
