<?xml version="1.0" encoding="UTF-8"?>
<!DOCTYPE svg PUBLIC "-//W3C//DTD SVG 1.0//EN" "http://www.w3.org/TR/2001/REC-SVG-20010904/DTD/svg10.dtd">
<!-- Creator: CorelDRAW X8 -->
<svg xmlns="http://www.w3.org/2000/svg" xml:space="preserve" width="158.766mm" height="156.041mm" version="1.0" style="shape-rendering:geometricPrecision; text-rendering:geometricPrecision; image-rendering:optimizeQuality; fill-rule:evenodd; clip-rule:evenodd"
viewBox="0 0 15267 15005"
 xmlns:xlink="http://www.w3.org/1999/xlink">
 <defs>
  <style type="text/css">
   <![CDATA[
    .fil0 {fill:#2B2A29;fill-rule:nonzero}
   ]]>
  </style>
 </defs>
 <g id="Слой_x0020_1">
  <metadata id="CorelCorpID_0Corel-Layer"/>
  <path class="fil0" d="M4999 4555l216 0 0 -267c0,-56 23,-107 60,-143 26,-26 59,-45 95,-54l0 -2095c-61,-10 -115,-39 -157,-81l0 0c-53,-53 -85,-125 -85,-206 0,-80 32,-153 85,-205 52,-53 125,-85 205,-85 80,0 153,32 206,85l0 0c53,53 85,125 85,205 0,81 -32,153 -85,206 -42,42 -96,71 -157,81l0 2095c36,9 69,28 95,54 37,36 59,87 59,143l0 267 253 0 0 -267c0,-56 23,-107 60,-143 26,-26 59,-45 95,-54l0 -3501c-60,-10 -115,-39 -157,-81l0 0c-53,-53 -85,-125 -85,-205 0,-81 32,-153 85,-206 53,-53 125,-85 206,-85 80,0 152,32 205,85l0 0c53,53 85,125 85,206 0,80 -32,153 -85,205 -42,42 -96,71 -157,81l0 3501c36,9 69,28 95,54 37,36 60,87 60,143l0 267 253 0 0 -267c0,-56 22,-107 59,-143 26,-26 59,-45 96,-54l0 -1560c-61,-11 -116,-40 -158,-82l0 0c-53,-52 -85,-125 -85,-205 0,-81 32,-153 85,-206l0 0c53,-52 126,-85 206,-85 80,0 152,33 205,85l0 0c53,53 85,125 85,206 0,80 -32,153 -85,205l0 0c-42,42 -96,71 -157,82l0 1560c36,9 69,28 95,54 37,36 60,87 60,143l0 267 253 0 0 -267c0,-56 23,-107 59,-143 26,-26 59,-45 96,-54l0 -1560c-61,-11 -116,-40 -158,-82l0 0c-53,-52 -85,-125 -85,-205 0,-81 32,-153 85,-206l0 0c53,-52 126,-85 206,-85 80,0 153,33 205,85l0 0c53,53 86,125 86,206 0,80 -33,153 -86,205l0 0c-42,42 -96,71 -157,82l0 1560c36,9 69,28 95,54 37,36 60,87 60,143l0 267 253 0 0 -267c0,-56 23,-107 59,-143 26,-26 59,-45 96,-54l0 -3501c-61,-10 -116,-39 -158,-81l0 0c-52,-53 -85,-125 -85,-205 0,-81 33,-153 85,-206 53,-53 126,-85 206,-85 80,0 153,32 205,85l0 0c53,53 86,125 86,206 0,80 -33,152 -86,205l0 0c-41,42 -96,71 -157,81l0 3501c37,9 69,28 95,54 37,36 60,87 60,143l0 267 253 0 0 -267c0,-56 23,-107 59,-143 26,-26 59,-45 96,-54l0 -2871c-61,-10 -116,-39 -158,-81 -52,-53 -85,-125 -85,-206 0,-80 33,-153 85,-205 53,-53 126,-85 206,-85 80,0 153,32 206,85l-1 0c53,53 86,125 86,205 0,80 -33,153 -86,206l1 0c-42,42 -97,71 -158,81l0 2871c37,9 70,28 95,54 37,36 60,87 60,143l0 267 253 0 0 -267c0,-56 23,-107 60,-143 25,-26 58,-45 95,-54l0 -3513c-61,-11 -116,-40 -158,-82l1 0c-53,-52 -86,-125 -86,-205 0,-80 33,-153 86,-206l-1 0c53,-52 126,-85 206,-85 80,0 153,33 206,85l0 0c52,53 85,126 85,206 0,80 -33,153 -85,205l0 0c-42,42 -97,71 -158,82l0 3513c37,9 70,28 95,54 37,36 60,87 60,143l0 267 253 0 0 -267c0,-56 23,-107 60,-143 26,-26 58,-45 95,-54l0 -1535c-61,-10 -116,-39 -157,-81l0 0c-53,-53 -86,-126 -86,-206 0,-80 33,-153 86,-205 52,-53 125,-86 205,-86 80,0 153,33 206,86 52,52 85,125 85,205 0,80 -33,153 -85,206l0 0c-42,42 -97,71 -158,81l0 1535c37,9 70,28 96,54 36,36 59,87 59,143l0 267 216 0c43,0 81,17 109,45l1 0c28,28 45,67 45,109l0 195 266 0c56,0 107,23 144,60 26,25 45,58 54,95l1862 0c10,-61 39,-116 81,-158 53,-52 125,-85 206,-85 80,0 152,33 205,86l0 -1c53,53 85,126 85,206 0,80 -32,153 -85,206 -52,52 -125,85 -205,85 -81,0 -153,-33 -206,-85l0 0c-42,-42 -71,-97 -81,-158l-1862 0c-9,37 -28,70 -54,96 -37,36 -88,59 -144,59l-266 0 0 253 266 0c56,0 107,23 144,60 26,26 45,58 54,95l3152 0c10,-61 40,-116 81,-157 53,-53 126,-86 206,-86 80,0 153,33 206,86l0 0c52,52 85,125 85,205 0,80 -33,153 -85,206l0 0c-53,52 -126,85 -206,85 -80,0 -153,-33 -205,-85l-1 0c-41,-42 -71,-97 -81,-158l-3152 0c-9,37 -28,70 -54,96 -37,36 -88,59 -144,59l-266 0 0 253 266 0c56,0 107,23 144,60 26,26 45,59 54,95l2652 0c10,-61 39,-115 81,-157 52,-53 125,-86 205,-86 81,0 153,33 206,86l0 0c53,53 85,125 85,205 0,81 -32,153 -85,206 -53,52 -125,85 -206,85 -80,0 -152,-33 -205,-85l0 0c-42,-42 -71,-97 -81,-158l-2652 0c-9,37 -28,70 -54,96 -37,36 -88,59 -144,59l-266 0 0 253 266 0c56,0 107,23 144,60 26,26 45,59 54,95l3163 0c11,-61 40,-115 82,-157 52,-53 125,-85 205,-85 80,0 153,32 206,85l0 0c52,53 85,125 85,205 0,81 -33,153 -85,206 -53,53 -125,85 -206,85 -80,0 -153,-32 -205,-85l0 0c-42,-42 -71,-97 -82,-158l-3163 0c-9,37 -28,70 -54,96 -37,37 -88,59 -144,59l-266 0 0 253 266 0c56,0 107,23 144,60 26,26 45,59 54,95l860 0c11,-61 40,-115 82,-157 52,-53 125,-85 205,-85 80,0 153,32 206,85l0 0c53,53 85,125 85,205 0,81 -32,153 -85,206 -53,53 -125,85 -206,85 -80,0 -153,-32 -205,-85l0 0c-42,-42 -71,-97 -82,-157l-860 0c-9,36 -28,69 -54,95 -37,37 -88,60 -144,60l-266 0 0 253 266 0c56,0 107,22 144,59 26,26 45,59 54,95l3620 0c10,-61 39,-115 81,-157 52,-53 125,-85 205,-85 80,0 153,32 206,85l0 0c53,53 85,125 85,206 0,80 -32,153 -85,205 -53,53 -125,85 -206,85 -80,0 -152,-32 -205,-85l0 0c-42,-42 -71,-96 -81,-157l-3620 0c-9,36 -28,69 -54,95 -37,37 -88,60 -144,60l-266 0 0 253 266 0c56,0 107,22 144,59 26,26 45,59 54,96l3597 0c10,-61 40,-116 81,-158l1 0c52,-53 125,-85 205,-85 80,0 153,32 206,85 52,53 85,125 85,206 0,80 -33,153 -85,205 -53,53 -126,85 -206,85 -80,0 -153,-32 -206,-85 -41,-42 -71,-96 -81,-157l-3597 0c-9,36 -28,69 -54,95 -37,37 -88,60 -144,60l-266 0 0 253 266 0c56,0 107,23 144,59 26,26 45,59 54,96l2017 0c11,-61 40,-116 82,-158 52,-52 125,-85 205,-85 81,0 153,33 206,85l0 0c53,53 85,126 85,206 0,80 -32,153 -85,205l0 0c-53,53 -125,86 -206,86 -80,0 -153,-33 -205,-86l0 0c-42,-42 -71,-96 -82,-157l-2017 0c-9,37 -28,69 -54,95 -37,37 -88,60 -144,60l-266 0 0 195c0,42 -17,81 -45,109l-1 0c-28,28 -66,45 -109,45l-216 0 0 267c0,56 -23,106 -59,143 -26,26 -59,45 -96,54l0 2645c61,10 116,39 158,81l0 0c52,53 85,125 85,206 0,80 -33,153 -85,205 -53,53 -126,85 -206,85 -80,0 -153,-32 -205,-85 -53,-52 -86,-125 -86,-205 0,-81 33,-153 86,-206l0 0c41,-42 96,-71 157,-81l0 -2645c-37,-9 -69,-28 -95,-54 -37,-37 -60,-87 -60,-143l0 -267 -253 0 0 267c0,56 -23,106 -60,143 -25,26 -58,45 -95,54l0 2244c61,10 116,40 158,81l0 0c52,53 85,126 85,206 0,80 -33,153 -85,206l0 0c-53,52 -126,85 -206,85 -80,0 -153,-33 -206,-85l1 0c-53,-53 -86,-126 -86,-206 0,-80 33,-153 86,-206l-1 0c42,-41 97,-71 158,-81l0 -2244c-37,-9 -70,-28 -95,-54 -37,-37 -60,-87 -60,-143l0 -267 -253 0 0 267c0,56 -23,106 -60,143 -25,26 -58,45 -95,54l0 1443c61,10 116,39 158,81l-1 0c53,53 86,126 86,206 0,80 -33,153 -86,206l1 0c-53,52 -126,85 -206,85 -80,0 -153,-33 -206,-85l0 -1c-52,-52 -85,-125 -85,-205 0,-80 33,-153 85,-206 42,-42 97,-71 158,-81l0 -1443c-37,-9 -70,-28 -96,-54 -36,-37 -59,-87 -59,-143l0 -267 -253 0 0 267c0,56 -23,106 -60,143 -26,26 -58,45 -95,54l0 3479c61,10 116,39 157,81 53,53 86,126 86,206 0,80 -33,153 -86,206 -52,52 -125,85 -205,85 -80,0 -153,-33 -206,-86l0 1c-52,-53 -85,-126 -85,-206 0,-80 33,-153 85,-206l0 0c42,-42 97,-71 158,-81l0 -3479c-37,-9 -70,-28 -96,-54 -36,-37 -59,-87 -59,-143l0 -267 -253 0 0 267c0,56 -23,106 -60,143 -26,26 -59,45 -95,54l0 2867c61,10 115,40 157,82l0 -1c53,53 86,126 86,206 0,80 -33,153 -86,206 -52,52 -125,85 -205,85 -80,0 -153,-33 -206,-85l0 -1c-53,-52 -85,-125 -85,-205 0,-80 32,-153 85,-206l0 1c42,-42 97,-72 158,-82l0 -2867c-37,-9 -70,-28 -96,-54 -36,-37 -59,-87 -59,-143l0 -267 -253 0 0 267c0,56 -23,106 -60,143 -26,26 -59,45 -95,54l0 3690c61,11 115,40 157,82 53,52 85,125 85,205 0,80 -32,153 -85,206l0 0c-53,53 -125,85 -205,85 -81,0 -153,-32 -206,-85 -53,-53 -85,-125 -85,-206 0,-80 32,-153 85,-205 42,-42 97,-71 158,-82l0 -3690c-37,-9 -70,-28 -96,-54 -37,-37 -59,-87 -59,-143l0 -267 -253 0 0 267c0,56 -23,106 -60,143 -26,26 -59,45 -95,54l0 2222c61,10 115,39 157,81 53,53 85,125 85,206 0,80 -32,152 -85,205l0 0c-53,53 -125,86 -205,86 -81,0 -153,-33 -206,-86 -53,-52 -85,-125 -85,-205 0,-81 32,-153 85,-206 42,-42 96,-71 157,-81l0 -2222c-36,-9 -69,-28 -95,-54 -37,-37 -60,-87 -60,-143l0 -267 -253 0 0 267c0,56 -22,106 -59,143 -26,26 -59,45 -95,54l0 1043c60,10 115,39 157,81l0 0c53,53 85,125 85,205 0,81 -32,153 -85,206 -53,53 -125,85 -206,85 -80,0 -152,-32 -205,-85l0 0c-53,-53 -85,-125 -85,-206 0,-80 32,-153 85,-205 42,-42 96,-71 157,-81l0 -1043c-36,-9 -69,-28 -95,-54 -37,-37 -60,-87 -60,-143l0 -267 -216 0c-42,0 -81,-17 -109,-45l0 0c-28,-28 -45,-67 -45,-109l0 -195 -267 0c-56,0 -106,-23 -143,-60 -26,-26 -45,-58 -54,-95l-2513 0c-10,61 -39,115 -81,157 -53,53 -125,86 -206,86 -80,0 -153,-33 -205,-86 -53,-52 -85,-125 -85,-205 0,-80 32,-153 85,-206l0 0c53,-52 125,-85 205,-85 81,0 153,33 206,85 42,42 71,97 81,158l2513 0c9,-37 28,-70 54,-96 37,-36 87,-59 143,-59l267 0 0 -253 -267 0c-56,0 -106,-23 -143,-60 -26,-26 -45,-59 -54,-95l-3803 0c-11,61 -40,115 -82,157 -52,53 -125,85 -205,85 -80,0 -153,-32 -206,-85 -52,-52 -85,-125 -85,-205 0,-80 33,-153 85,-206l0 0c53,-53 126,-85 206,-85 80,0 153,32 205,85 42,42 71,97 82,158l3803 0c9,-37 28,-70 54,-96 37,-37 87,-59 143,-59l267 0 0 -253 -267 0c-56,0 -106,-23 -143,-60 -26,-26 -45,-59 -54,-95l-1189 0c-10,61 -39,115 -81,157l0 0c-53,53 -125,85 -206,85 -80,0 -153,-32 -205,-85l0 0c-53,-53 -86,-125 -86,-205 0,-81 33,-153 86,-206l0 0c52,-53 125,-85 205,-85 81,0 153,32 206,85l0 0c42,42 71,97 81,157l1189 0c9,-36 28,-69 54,-95 37,-37 87,-59 143,-59l267 0 0 -253 -267 0c-56,0 -106,-23 -143,-60 -26,-26 -45,-59 -54,-95l-3258 0c-10,60 -40,115 -82,157l1 0c-53,53 -126,85 -206,85 -80,0 -153,-32 -205,-85l-1 0c-52,-53 -85,-125 -85,-206 0,-80 33,-153 85,-205 53,-53 126,-85 206,-85 80,0 153,32 206,85l-1 0c42,42 72,96 82,157l3258 0c9,-36 28,-69 54,-95 37,-37 87,-60 143,-60l267 0 0 -253 -267 0c-56,0 -106,-22 -143,-59 -26,-26 -45,-59 -54,-96l-2507 0c-10,61 -39,116 -81,158 -53,53 -126,85 -206,85 -80,0 -153,-32 -205,-85l0 0c-53,-53 -86,-125 -86,-206 0,-80 33,-153 86,-205 52,-53 125,-85 205,-85 80,0 153,32 206,85l0 0c42,42 71,96 81,157l2507 0c9,-36 28,-69 54,-95 37,-37 87,-60 143,-60l267 0 0 -253 -267 0c-56,0 -106,-23 -143,-59 -26,-26 -45,-59 -54,-96l-2507 0c-10,61 -39,116 -81,158 -53,52 -126,85 -206,85 -80,0 -153,-33 -205,-85l0 0c-53,-53 -86,-126 -86,-206 0,-80 33,-153 86,-205 52,-53 125,-86 205,-86 80,0 153,33 206,86l0 0c42,42 71,96 81,157l2507 0c9,-36 28,-69 54,-95 37,-37 87,-60 143,-60l267 0 0 -253 -267 0c-56,0 -106,-23 -143,-59 -26,-26 -45,-59 -54,-96l-3240 0c-10,61 -39,116 -81,158 -53,52 -125,85 -206,85 -80,0 -152,-33 -205,-85l0 0c-53,-53 -85,-126 -85,-206 0,-80 32,-153 85,-205 52,-53 125,-86 205,-86 80,0 153,33 206,86l0 0c42,42 71,96 81,157l3240 0c9,-37 28,-69 54,-95 37,-37 87,-60 143,-60l267 0 0 -253 -267 0c-56,0 -106,-23 -143,-59 -26,-26 -45,-59 -54,-96l-1341 0c-10,61 -39,116 -81,158 -52,52 -125,85 -205,85 -81,0 -153,-33 -206,-85l0 0c-53,-53 -85,-126 -85,-206 0,-80 32,-153 85,-206 53,-52 125,-85 206,-85 80,0 152,33 205,86l0 -1c42,42 71,97 81,158l1341 0c9,-37 28,-70 54,-95 37,-37 87,-60 143,-60l267 0 0 -195c0,-42 17,-81 45,-109l0 0c28,-28 67,-45 109,-45zm5171 -2148c35,-35 57,-84 57,-138 0,-54 -22,-102 -57,-137 -35,-36 -84,-57 -138,-57 -54,0 -102,21 -138,57 -35,35 -57,83 -57,137 0,54 22,103 57,138l0 0c36,35 84,57 138,57 54,0 103,-22 138,-57l0 0zm-659 -1979c35,-35 57,-83 57,-137 0,-54 -22,-103 -57,-138l0 0c-36,-35 -84,-57 -138,-57 -54,0 -102,22 -138,57l0 0c-35,35 -57,84 -57,138 0,54 22,102 57,137l0 0c36,36 84,57 138,57 54,0 102,-21 138,-57l0 0zm-659 643c35,-35 57,-84 57,-138 0,-54 -22,-102 -57,-137l0 0c-36,-36 -84,-57 -138,-57 -54,0 -102,21 -138,57 -35,35 -57,84 -57,137 0,54 22,103 57,138 36,35 84,57 138,57 54,0 102,-22 138,-57l0 0zm-659 -630c35,-35 56,-84 56,-137 0,-54 -21,-103 -56,-138l-1 0c-35,-35 -83,-57 -137,-57 -54,0 -103,22 -138,57 -35,35 -57,84 -57,138 0,53 22,102 57,137 35,35 84,57 138,57 54,0 102,-22 137,-57l1 0zm-660 1940c36,-35 57,-83 57,-137 0,-54 -21,-103 -57,-138l0 0c-35,-35 -83,-57 -137,-57 -54,0 -103,22 -138,57l0 0c-35,35 -57,84 -57,138 0,54 22,102 57,137l0 1c35,35 84,56 138,56 54,0 102,-21 137,-56l0 -1zm-659 0c35,-35 57,-83 57,-137 0,-54 -22,-103 -57,-138l0 0c-35,-35 -84,-57 -137,-57 -54,0 -103,22 -138,57l0 0c-35,35 -57,84 -57,138 0,54 22,102 57,137l0 1c35,35 84,56 138,56 53,0 102,-21 137,-56l0 -1zm-659 -1940c35,-35 57,-84 57,-137 0,-54 -22,-103 -57,-138l0 0c-35,-35 -84,-57 -137,-57 -54,0 -103,22 -138,57 -35,35 -57,84 -57,138 0,53 22,102 57,137 35,35 84,57 138,57 53,0 102,-22 137,-57zm-659 1406c35,-35 57,-84 57,-138 0,-53 -22,-102 -57,-137l0 0c-35,-36 -84,-57 -138,-57 -53,0 -102,22 -137,57 -35,35 -57,84 -57,137 0,54 22,103 57,138 35,35 84,57 137,57 54,0 103,-22 138,-57zm7663 3065c-54,0 -103,22 -138,57 -35,36 -57,84 -57,138 0,54 22,103 57,138l0 0c35,35 84,57 138,57 53,0 102,-22 137,-57 35,-36 57,-84 57,-138 0,-54 -22,-102 -57,-138l0 0c-35,-35 -84,-57 -137,-57zm1290 660c-54,0 -102,21 -138,57 -35,35 -57,83 -57,137 0,54 22,103 57,138 36,35 84,57 138,57 54,0 103,-22 138,-57l0 0c35,-35 57,-84 57,-138 0,-54 -22,-102 -57,-137l0 0c-35,-36 -84,-57 -138,-57zm-501 659c-53,0 -102,21 -137,57 -35,35 -57,84 -57,137 0,54 22,103 57,138 35,35 84,57 137,57 54,0 103,-22 138,-57 35,-35 57,-84 57,-138 0,-54 -22,-102 -57,-137l0 -1c-35,-35 -84,-56 -138,-56zm512 659c-54,0 -102,22 -137,57 -36,35 -57,84 -57,137 0,54 21,103 56,138 36,35 84,57 138,57 54,0 103,-22 138,-57 35,-35 57,-84 57,-138 0,-54 -22,-102 -57,-137l0 0c-35,-36 -84,-57 -138,-57zm-2303 659c-53,0 -102,22 -137,57 -36,35 -57,84 -57,137 0,54 21,103 57,138 35,35 83,57 137,57 54,0 103,-22 138,-57 35,-35 57,-84 57,-138 0,-53 -22,-102 -57,-137l0 0c-35,-35 -84,-57 -138,-57zm2759 659c-53,0 -102,22 -137,57 -35,35 -57,84 -57,138 0,53 21,102 57,137 35,35 84,57 137,57 54,0 103,-22 138,-57 35,-35 57,-84 57,-137 0,-54 -22,-103 -57,-138l0 0c-35,-35 -84,-57 -138,-57zm-22 659c-54,0 -102,22 -138,57l0 0c-35,35 -57,84 -57,138 0,53 22,102 57,137 36,36 84,57 138,57 54,0 103,-21 138,-57 35,-35 57,-84 57,-137 0,-54 -22,-103 -57,-138 -35,-35 -84,-57 -138,-57zm-1580 659c-53,0 -102,22 -137,57 -36,35 -57,84 -57,138 0,54 21,102 57,137 35,36 83,57 137,57 54,0 103,-21 138,-57l0 0c35,-35 57,-83 57,-137 0,-54 -22,-103 -57,-138l0 0c-35,-35 -84,-57 -138,-57zm-3480 4005c-35,35 -57,84 -57,138 0,53 22,102 57,137 36,35 84,57 138,57 54,0 103,-22 138,-57 35,-35 57,-84 57,-137 0,-54 -22,-103 -57,-138l0 0c-35,-35 -84,-57 -138,-57 -54,0 -102,22 -138,57l0 0zm-659 -401c-35,35 -57,84 -57,138 0,54 22,103 57,138l0 0c36,35 84,57 138,57 54,0 102,-22 138,-57l0 0c35,-35 57,-84 57,-138 0,-54 -22,-103 -57,-138l0 0c-36,-35 -84,-57 -138,-57 -54,0 -102,22 -138,57l0 0zm-659 -801c-35,36 -57,84 -57,138 0,54 22,102 57,138 35,35 84,57 138,57 54,0 102,-22 138,-57l0 0c35,-35 57,-84 57,-138 0,-54 -22,-103 -57,-138l0 0c-36,-35 -84,-57 -138,-57 -54,0 -102,22 -138,57zm-659 2036c-35,36 -57,84 -57,138 0,54 22,102 57,138l0 0c35,35 84,57 138,57 54,0 102,-22 137,-57 36,-36 57,-84 57,-138 0,-54 -21,-102 -57,-138 -35,-35 -83,-57 -137,-57 -54,0 -103,22 -138,57l0 0zm-659 -612c-35,36 -57,84 -57,138 0,54 22,103 57,138 35,35 84,57 138,57 53,0 102,-22 137,-57 36,-36 57,-84 57,-138 0,-54 -21,-102 -57,-138l0 0c-35,-35 -83,-57 -137,-57 -54,0 -103,22 -138,57l0 0zm-659 824c-35,35 -57,84 -57,137 0,54 22,103 57,138 35,35 84,57 138,57 53,0 102,-22 137,-57l0 0c36,-35 57,-84 57,-138 0,-53 -22,-102 -57,-137 -35,-36 -84,-57 -137,-57 -54,0 -103,21 -138,57zm-1318 -2648c-35,35 -57,84 -57,137 0,54 22,103 57,138 35,35 84,57 137,57 54,0 103,-22 138,-57 35,-35 57,-84 57,-138 0,-53 -22,-102 -57,-137l0 0c-35,-35 -84,-57 -138,-57 -53,0 -102,22 -137,57zm659 1179c-35,35 -57,84 -57,138 0,54 22,102 57,137 35,36 84,57 138,57 53,0 102,-21 137,-56l0 -1c35,-35 57,-83 57,-137 0,-54 -22,-103 -57,-138 -35,-35 -84,-57 -137,-57 -54,0 -103,22 -138,57zm-4221 -3525c-35,-35 -84,-57 -138,-57 -54,0 -102,22 -137,57l0 0c-36,35 -57,84 -57,138 0,54 21,102 57,137 35,36 84,57 137,57 54,0 103,-21 138,-57 35,-35 57,-83 57,-137 0,-54 -22,-103 -57,-138zm-1291 -659c-35,-35 -83,-57 -137,-57 -54,0 -103,22 -138,57l0 0c-35,35 -57,84 -57,138 0,53 22,102 57,137 35,36 84,57 138,57 54,0 102,-21 137,-57 36,-35 57,-84 57,-137 0,-54 -21,-103 -57,-138zm2615 -659c-35,-35 -84,-57 -138,-57 -53,0 -102,22 -137,57l-1 0c-35,35 -56,84 -56,138 0,53 21,102 56,137l1 0c35,35 84,57 137,57 54,0 103,-22 138,-57l0 0c35,-35 57,-84 57,-137 0,-54 -22,-103 -57,-138l0 0zm-2069 -659c-36,-35 -84,-57 -138,-57 -54,0 -102,22 -138,57 -35,35 -57,84 -57,137 0,54 22,103 57,138 35,35 84,57 138,57 54,0 102,-22 138,-57l0 0c35,-35 57,-84 57,-138 0,-53 -22,-102 -57,-137l0 0zm751 -659c-35,-36 -84,-57 -138,-57 -54,0 -102,22 -137,57 -36,35 -57,84 -57,137 0,54 21,103 56,138 36,35 84,57 138,57 54,0 103,-22 138,-57 35,-35 57,-84 57,-138 0,-54 -22,-102 -57,-137l0 0zm0 -660c-35,-35 -84,-56 -138,-56 -54,0 -102,21 -137,57 -36,35 -57,84 -57,137 0,54 21,103 56,138 36,35 84,57 138,57 54,0 103,-22 138,-57 35,-35 57,-84 57,-138 0,-54 -22,-102 -57,-137l0 -1zm-733 -659c-35,-35 -84,-56 -138,-56 -53,0 -102,21 -137,57 -35,35 -57,83 -57,137 0,54 22,103 57,138 35,35 84,57 137,57 54,0 103,-22 138,-57 35,-35 57,-84 57,-138 0,-54 -22,-102 -57,-137l0 -1zm1899 -659c-35,-35 -84,-57 -137,-57 -54,0 -103,22 -138,57 -35,36 -57,84 -57,138 0,54 22,103 57,138l0 0c35,35 84,57 138,57 53,0 102,-22 137,-57 35,-36 57,-84 57,-138 0,-54 -22,-102 -57,-138l0 0zm7248 5304l-214 0 0 267c0,29 12,56 32,75 19,20 46,32 75,32 29,0 56,-12 76,-32 19,-19 31,-46 31,-75l0 -267zm-659 0l-214 0 0 267c0,29 12,56 32,75 19,20 46,32 75,32 29,0 56,-12 75,-32 20,-19 32,-46 32,-75l0 -267zm-659 0l-214 0 0 267c0,29 12,56 31,75 20,20 47,32 76,32 29,0 56,-12 75,-32 20,-19 32,-46 32,-75l0 -267zm-659 0l-214 0 0 267c0,29 12,56 31,75 20,20 46,32 76,32 29,0 56,-12 75,-32 20,-19 32,-46 32,-75l0 -267zm-659 0l-214 0 0 267c0,29 12,56 31,75 20,20 46,32 76,32 29,0 56,-12 75,-32 20,-19 32,-46 32,-75l0 -267zm-659 0l-214 0 0 267c0,29 12,56 31,75 20,20 46,32 76,32 29,0 56,-12 75,-32 19,-19 32,-46 32,-75l0 -267zm-660 0l-213 0 0 267c0,29 12,56 31,75 19,20 46,32 76,32 29,0 56,-12 75,-32 19,-19 31,-46 31,-75l0 -267zm-659 0l-213 0 0 267c0,29 12,56 31,75 19,20 46,32 75,32 30,0 57,-12 76,-32 19,-19 31,-46 31,-75l0 -267zm5081 -5273l0 214 266 0c30,0 56,-12 76,-31 19,-20 31,-47 31,-76 0,-29 -12,-56 -31,-75 -20,-20 -46,-32 -76,-32l-266 0zm0 659l0 214 266 0c30,0 56,-12 76,-31 19,-20 31,-46 31,-76 0,-29 -12,-56 -31,-75 -20,-20 -46,-32 -76,-32l-266 0zm0 659l0 214 266 0c30,0 56,-12 76,-31 19,-20 31,-46 31,-76 0,-29 -12,-56 -31,-75 -20,-20 -46,-32 -76,-32l-266 0zm0 659l0 214 266 0c30,0 56,-12 76,-31 19,-20 31,-46 31,-76 0,-29 -12,-56 -31,-75 -20,-19 -46,-32 -76,-32l-266 0zm0 660l0 213 266 0c30,0 56,-12 76,-31 19,-19 31,-46 31,-76 0,-29 -12,-56 -31,-75 -20,-19 -46,-31 -76,-31l-266 0zm0 659l0 213 266 0c30,0 56,-12 76,-31 19,-19 31,-46 31,-75 0,-30 -12,-57 -31,-76 -20,-19 -46,-31 -76,-31l-266 0zm0 659l0 214 266 0c30,0 56,-12 76,-32 19,-19 31,-46 31,-75 0,-30 -12,-56 -31,-76 -20,-19 -46,-31 -76,-31l-266 0zm0 659l0 214 266 0c30,0 56,-12 76,-32 19,-19 31,-46 31,-75 0,-30 -12,-56 -31,-76 -20,-19 -46,-31 -76,-31l-266 0zm-5761 -4400l0 -214 -267 0c-29,0 -56,12 -75,32 -20,19 -32,46 -32,75 0,29 12,56 32,76 19,19 46,31 75,31l267 0zm0 659l0 -214 -267 0c-29,0 -56,12 -75,32 -20,19 -32,46 -32,75 0,30 12,56 32,76 19,19 46,31 75,31l267 0zm0 659l0 -214 -267 0c-29,0 -56,12 -75,32 -20,19 -32,46 -32,75 0,30 12,56 32,76 19,19 46,31 75,31l267 0zm0 659l0 -214 -267 0c-29,0 -56,13 -75,32 -20,19 -32,46 -32,75 0,30 12,56 32,76 19,19 46,31 75,31l267 0zm0 659l0 -213 -267 0c-29,0 -56,12 -75,31 -20,19 -32,46 -32,75 0,30 12,57 32,76 19,19 46,31 75,31l267 0zm0 659l0 -213 -267 0c-29,0 -56,12 -75,31 -20,19 -32,46 -32,76 0,29 12,56 32,75 19,19 46,31 75,31l267 0zm0 660l0 -214 -267 0c-29,0 -56,12 -75,31 -20,20 -32,46 -32,76 0,29 12,56 32,75 19,20 46,32 75,32l267 0zm0 659l0 -214 -267 0c-29,0 -56,12 -75,31 -20,20 -32,46 -32,76 0,29 12,56 32,75 19,20 46,32 75,32l267 0zm5080 -5273l214 0 0 -267c0,-29 -12,-56 -31,-75 -20,-20 -47,-32 -76,-32 -29,0 -56,12 -75,32 -20,19 -32,46 -32,75l0 267zm-659 0l214 0 0 -267c0,-29 -12,-56 -32,-75 -19,-20 -46,-32 -75,-32 -29,0 -56,12 -75,32 -20,19 -32,46 -32,75l0 267zm-659 0l214 0 0 -267c0,-29 -12,-56 -32,-75 -19,-20 -46,-32 -75,-32 -29,0 -56,12 -76,32 -19,19 -31,46 -31,75l0 267zm-659 0l214 0 0 -267c0,-29 -12,-56 -32,-75 -19,-20 -46,-32 -75,-32 -30,0 -56,12 -76,32 -19,19 -31,46 -31,75l0 267zm-659 0l214 0 0 -267c0,-29 -12,-56 -32,-75 -19,-20 -46,-32 -75,-32 -30,0 -56,12 -76,32 -19,19 -31,46 -31,75l0 267zm-659 0l214 0 0 -267c0,-29 -13,-56 -32,-75 -19,-20 -46,-32 -75,-32 -30,0 -56,12 -76,32 -19,19 -31,46 -31,75l0 267zm-659 0l213 0 0 -267c0,-29 -12,-56 -31,-75 -19,-20 -46,-32 -75,-32 -30,0 -57,12 -76,32 -19,19 -31,46 -31,75l0 267zm-659 0l213 0 0 -267c0,-29 -12,-56 -31,-75 -19,-20 -46,-32 -76,-32 -29,0 -56,12 -75,32 -19,19 -31,46 -31,75l0 267zm396 645l4034 0c59,0 112,24 150,63l1 0c38,39 62,92 62,150l0 4001c0,59 -24,112 -62,151 -39,38 -92,62 -151,62l-4034 0c-58,0 -112,-24 -150,-62 -39,-39 -63,-92 -63,-151l0 -4001c0,-58 24,-111 63,-150l0 0c39,-39 92,-63 150,-63zm4034 97l-4034 0c-32,0 -61,13 -82,34l0 0c-21,21 -34,50 -34,82l0 4001c0,32 13,62 34,83 21,21 50,34 82,34l4034 0c32,0 61,-13 83,-34 21,-21 34,-51 34,-83l0 -4001c0,-32 -13,-61 -34,-82 -21,-21 -51,-34 -83,-34zm709 -646l-216 0 -406 0 -253 0 -406 0 -253 0 -406 0 -253 0 -406 0 -253 0 -406 0 -253 0 -406 0 -253 0 -407 0 -253 0 -406 0 -216 0c-16,0 -30,6 -41,17l0 0c-11,10 -17,25 -17,41l0 195 0 406 0 253 0 406 0 253 0 406 0 253 0 406 0 253 0 407 0 253 0 406 0 253 0 406 0 253 0 406 0 195c0,16 6,30 17,41l0 0c11,11 25,17 41,17l216 0 406 0 253 0 407 0 253 0 406 0 253 0 406 0 253 0 406 0 253 0 406 0 253 0 406 0 253 0 406 0 216 0c16,0 31,-6 42,-17l0 0c10,-11 17,-25 17,-41l0 -195 0 -406 0 -253 0 -406 0 -253 0 -406 0 -253 0 -407 0 -253 0 -406 0 -253 0 -406 0 -253 0 -406 0 -253 0 -406 0 -195c0,-16 -7,-31 -17,-41 -11,-11 -26,-17 -42,-17z"/>
 </g>
</svg>
